# AST/ASF file generated using VICON BodyLanguage
# -----------------------------------------------
:version 1.10
:name VICON
:units
  mass 1.0
  length 0.45
  angle deg
:documentation
   .ast/.asf automatically generated from VICON data using
   VICON BodyBuilder and BodyLanguage model FoxedUp or BRILLIANT.MOD
:root
   order TX TY TZ RX RY RZ
   axis XYZ
   position 0 0 0  
   orientation 0 0 0 
:bonedata
  begin
     id 1 
     name lhipjoint
     direction 0.645897 -0.709066 0.282916 
     length 2.50918 
     axis 0 0 0  XYZ
  end
  begin
     id 2 
     name lfemur
     direction 0.34202 -0.939693 0  
     length 6.85725  
     axis 0 0 20  XYZ
    dof rx ry rz
    limits (-160.0 20.0)
           (-70.0 70.0)
           (-60.0 70.0)
  end
  begin
     id 3 
     name ltibia
     direction 0.34202 -0.939693 0   
     length 8.01778   
     axis 0 0 20   XYZ
    dof rx
    limits (-10.0 170.0)
  end
  begin
     id 4 
     name lfoot
     direction 0.0796011 -0.218702 0.972539   
     length 2.13962   
     axis -90 7.62852e-016 20   XYZ
    dof rx rz
    limits (-45.0 90.0)
           (-70.0 20.0)
  end
  begin
     id 5 
     name ltoes
     direction 1.53548e-011 -4.21881e-011 1   
     length 1.07476   
     axis -90 7.62852e-016 20   XYZ
    dof rx
    limits (-90.0 20.0)
  end
  begin
     id 6 
     name rhipjoint
     direction -0.63101 -0.720537 0.287493   
     length 2.46923  
     axis 0 0 0  XYZ 
  end
  begin
     id 7 
     name rfemur
     direction -0.34202 -0.939693 0   
     length 6.81957   
     axis 0 0 -20   XYZ
    dof rx ry rz
    limits (-160.0 20.0)
           (-70.0 70.0)
           (-70.0 60.0)
  end
  begin
     id 8 
     name rtibia
     direction -0.34202 -0.939693 0   
     length 8.15152   
     axis 0 0 -20   XYZ
    dof rx
    limits (-10.0 170.0)
 end
 begin
     id 9 
     name rfoot
     direction -0.105819 -0.290734 0.950934   
     length 2.14588  
     axis -90 -7.62852e-016 -20   XYZ
    dof rx rz
    limits (-45.0 90.0)
           (-20.0 70.0)
  end
  begin
     id 10 
     name rtoes
     direction -1.53512e-011 -4.22005e-011 1   
     length 1.0703   
     axis -90 -7.62852e-016 -20   XYZ
    dof rx
    limits (-90.0 20.0)
  end
  begin
     id 11 
     name lowerback
     direction 0.0114933 0.999236 0.0373542   
     length 1.91711   
     axis 0 0 0   XYZ
    dof rx ry rz
    limits (-20.0 45.0)
           (-30.0 30.0)
           (-30.0 30.0)
  end
  begin
     id 12 
     name upperback
     direction 0.00911529 0.998099 0.0609554   
     length 1.90888   
     axis 0 0 0   XYZ
    dof rx ry rz
    limits (-20.0 45.0)
           (-30.0 30.0)
           (-30.0 30.0)
  end
  begin
     id 13 
     name thorax
     direction 0.00357322 0.99911 0.0420379   
     length 1.90942   
     axis 0 0 0   XYZ
    dof rx ry rz
    limits (-20.0 45.0)
           (-30.0 30.0)
           (-30.0 30.0)
  end
  begin
     id 14 
     name lowerneck
     direction -0.0589311 0.997882 0.0275448   
     length 1.83956   
     axis 0 0 0   XYZ
    dof rx ry rz
    limits (-20.0 45.0)
           (-30.0 30.0)
           (-30.0 30.0)
  end
  begin
     id 15 
     name upperneck
     direction 0.0362633 0.960055 -0.277453   
     length 1.82031   
     axis 0 0 0   XYZ
    dof rx ry rz
    limits (-20.0 45.0)
           (-30.0 30.0)
           (-30.0 30.0)
  end
  begin
     id 16
     name head
     direction 0.0166719 0.995328 -0.0951042  
     length 1.86084  
     axis 0 0 0   XYZ
    dof rx ry rz
    limits (-20.0 45.0)
           (-30.0 30.0)
           (-30.0 30.0)
  end
  begin
     id 17 
     name lclavicle
     direction 0.90319 0.426238 0.0506919  
     length 3.17828  
     axis 0 0 0   XYZ
    dof ry rz
    limits (-20.0 10.0)
           (0.0 20.0)
  end
  begin
     id 18 
     name lhumerus
     direction 1 -4.48953e-011 6.78797e-028   
     length 5.43592   
     axis 180 -30 -90   XYZ
    dof rx ry rz
    limits (-60.0 90.0)
           (-90.0 90.0)
           (-90.0 90.0)
  end
  begin
     id 19
     name lradius
     direction 1 -4.48969e-011 7.02702e-027   
     length 3.2546   
     axis 180 -30 -90   XYZ
    dof rx
    limits (-10.0 170.0)
  end
  begin
     id 20
     name lwrist
     direction 1 -4.48975e-011 1.29807e-026   
     length 1.6273   
     axis -8.50346e-015 90 90   XYZ
    dof ry
    limits (-180.0 0.0)
 end
  begin
     id 21 
     name lhand
     direction 1 -4.48917e-011 2.59615e-026   
     length 0.498244   
     axis -1.65656e-014 90 90   XYZ
    dof rx rz
    limits (-90.0 90.0)
           (-45.0 45.0)
  end
  begin
     id 22 
     name lfingers
     direction 1 -4.48885e-011 5.1923e-026   
     length 0.401697   
     axis -3.31313e-014 90 90   XYZ
    dof rx
    limits (0.0 90.0)
  end
  begin
     id 23
     name lthumb
     direction 0.707107 -6.34946e-011 0.707107   
     length 0.576759   
     axis -90 45 2.85299e-015   XYZ
    dof rx rz
    limits (-45.0 45.0)
           (-45.0 45.0)
  end
  begin
     id 24 
     name rclavicle
     direction -0.908603 0.391432 0.145676   
     length 3.15477  
     axis 0 0 0   XYZ 
    dof ry rz
    limits (-10.0 20.0)
           (-20.0 0.0)
  end
  begin
     id 25 
     name rhumerus
     direction -1 -4.4898e-011 1.02852e-027  
     length 5.3383   
     axis 180 30 90   XYZ
    dof rx ry rz
    limits (-90.0 60.0)
           (-90.0 90.0)
           (-90.0 90.0)
  end
  begin
     id 26 
     name rradius
     direction -1 -4.48968e-011 7.05567e-027   
     length 3.23148   
     axis 180 30 90   XYZ
    dof rx
    limits (-10.0 170.0)
  end
  begin
     id 27 
     name rwrist
     direction -1 -4.48927e-011 1.29807e-026   
     length 1.61574   
     axis -8.50346e-015 -90 -90   XYZ
    dof ry
    limits (-180.0 0.0)
  end
  begin
     id 28
     name rhand
     direction -1 -4.48905e-011 2.59615e-026   
     length 0.463641   
     axis -1.65656e-014 -90 -90   XYZ
    dof rx rz
    limits (-90.0 90.0)
           (-45.0 45.0)
  end
  begin
     id 29
     name rfingers
     direction -1 -4.49167e-011 5.1923e-026   
     length 0.373799   
     axis -3.31313e-014 -90 -90   XYZ
    dof rx
    limits (0.0 90.0)
  end
  begin
     id 30
     name rthumb
     direction -0.707107 -6.34954e-011 0.707107   
     length 0.536703   
     axis -90 -45 -2.85299e-015   XYZ
    dof rx rz
    limits (-45.0 45.0)
           (-45.0 45.0)
  end
:hierarchy
  begin
    root lhipjoint rhipjoint lowerback
    lhipjoint lfemur
    lfemur ltibia
    ltibia lfoot
    lfoot ltoes
    rhipjoint rfemur
    rfemur rtibia
    rtibia rfoot
    rfoot rtoes
    lowerback upperback
    upperback thorax
    thorax lowerneck lclavicle rclavicle
    lowerneck upperneck
    upperneck head
    lclavicle lhumerus
    lhumerus lradius
    lradius lwrist
    lwrist lhand lthumb
    lhand lfingers
    rclavicle rhumerus
    rhumerus rradius
    rradius rwrist
    rwrist rhand rthumb
    rhand rfingers
  end

#!OML:ASF F:\VICON\USERDATA\INSTALL\rory3\rory3.ASF
:FULLY-SPECIFIED
:DEGREES
60
root 4.06931 17.5696 3.90049 19.7993 -12.7846 -3.65144
lowerback -8.38253 -0.826178 6.22799
upperback -12.9875 -1.19421 3.07692
thorax -9.24551 -1.05471 -0.165276
lowerneck -4.59884 17.3984 12.0848
upperneck 14.3934 21.559 5.81725
head 5.79003 11.4908 1.54479
rclavicle -8.94531e-015 -3.97569e-015
rhumerus -10.3948 -21.9704 22.9305
rradius 121.466
rwrist -57.3248
rhand -2.41653 -44.7404
rfingers 7.12502
rthumb 23.2738 -73.3538
lclavicle -8.94531e-015 -3.97569e-015
lhumerus 30.9399 33.9588 -12.1452
lradius 31.2674
lwrist 39.7506
lhand -27.5577 -18.3095
lfingers 7.12502
lthumb -0.958711 11.6681
rfemur -4.55933 12.7142 -2.16088
rtibia 6.98411
rfoot 22.3023 -10.1649
rtoes -36.4988
lfemur -22.6483 -3.07848 -23.3077
ltibia 20.6146
lfoot -15.0452 14.6595
ltoes 10.7582
61
root 4.06688 17.5723 3.90087 19.7933 -12.7338 -3.79128
lowerback -8.37312 -0.847522 6.33262
upperback -12.9425 -1.22227 3.14735
thorax -9.20412 -1.07255 -0.149111
lowerneck -4.47735 17.3768 12.0791
upperneck 14.1821 21.5809 5.63493
head 5.72202 11.482 1.47119
rclavicle 2.64384e-014 -1.03368e-014
rhumerus -10.3202 -22.0206 22.8697
rradius 121.421
rwrist -57.37
rhand -2.53606 -44.7739
rfingers 7.12502
rthumb 23.1592 -73.4017
lclavicle 2.64384e-014 -1.03368e-014
lhumerus 31.0604 34.221 -11.8789
lradius 31.161
lwrist 39.3509
lhand -27.342 -18.2262
lfingers 7.12502
lthumb -0.750368 11.7523
rfemur -4.32611 12.731 -1.96201
rtibia 6.62084
rfoot 22.5947 -10.212
rtoes -36.3282
lfemur -22.6546 -3.04255 -23.1443
ltibia 20.7061
lfoot -15.0722 14.6449
ltoes 10.7698
62
root 4.06436 17.571 3.90498 19.8018 -12.7503 -3.77391
lowerback -8.50211 -0.841417 6.31119
upperback -12.8863 -1.22877 3.13248
thorax -9.06448 -1.07119 -0.159484
lowerneck -4.56683 17.3658 12.0863
upperneck 14.1725 21.5601 5.57557
head 5.74009 11.468 1.46034
rclavicle 2.92213e-014 -4.69132e-014
rhumerus -10.3563 -22.0919 22.831
rradius 121.386
rwrist -57.3898
rhand -2.36882 -44.763
rfingers 7.12502
rthumb 23.3196 -73.3706
lclavicle 2.92213e-014 -4.69132e-014
lhumerus 31.0607 34.3255 -11.8795
lradius 31.1357
lwrist 39.2909
lhand -26.9745 -18.0985
lfingers 7.12502
lthumb -0.395475 11.8809
rfemur -4.05286 12.7357 -1.98447
rtibia 6.15474
rfoot 22.7885 -10.2343
rtoes -36.1863
lfemur -22.7027 -3.02774 -23.1671
ltibia 20.82
lfoot -15.1232 14.639
ltoes 10.9257
63
root 4.06052 17.5692 3.91377 19.7969 -12.7442 -3.84197
lowerback -8.61604 -0.821461 6.38041
upperback -12.8605 -1.21542 3.13257
thorax -8.97213 -1.06872 -0.201771
lowerneck -4.69958 17.3281 12.0789
upperneck 14.3708 21.4764 5.63211
head 5.81664 11.4376 1.49496
rclavicle -2.66371e-014 -2.22639e-014
rhumerus -10.453 -22.0526 22.8816
rradius 121.458
rwrist -57.409
rhand -2.49017 -44.7796
rfingers 7.12502
rthumb 23.2032 -73.4019
lclavicle -2.66371e-014 -2.22639e-014
lhumerus 30.959 34.2152 -12.0306
lradius 31.2093
lwrist 39.5699
lhand -27.0419 -17.8638
lfingers 7.12502
lthumb -0.460547 12.1154
rfemur -3.79372 12.7611 -1.89147
rtibia 5.81552
rfoot 22.8553 -10.2408
rtoes -36.2053
lfemur -22.6804 -2.99151 -23.0967
ltibia 20.8964
lfoot -15.2506 14.5916
ltoes 11.3445
64
root 4.05792 17.57 3.91885 19.8 -12.726 -4.02495
lowerback -8.68912 -0.793341 6.56016
upperback -12.8053 -1.18973 3.17356
thorax -8.87331 -1.06682 -0.261125
lowerneck -4.87331 17.2844 12.0175
upperneck 14.5586 21.3883 5.66192
head 5.89326 11.4007 1.53017
rclavicle 4.81059e-014 7.95139e-016
rhumerus -10.5169 -21.9744 22.9774
rradius 121.574
rwrist -57.3332
rhand -2.99957 -44.8276
rfingers 7.12502
rthumb 22.7144 -73.5106
lclavicle 4.81059e-014 7.95139e-016
lhumerus 30.9109 34.2168 -12.0482
lradius 31.2632
lwrist 39.7955
lhand -27.3407 -17.7437
lfingers 7.12502
lthumb -0.749162 12.2348
rfemur -3.66304 12.8187 -1.67384
rtibia 5.6454
rfoot 22.8722 -10.2638
rtoes -36.1592
lfemur -22.6395 -2.98607 -22.8894
ltibia 20.9348
lfoot -15.3433 14.6214
ltoes 11.7348
